<svg width="42" height="42" viewBox="0 0 42 42" fill="none" xmlns="http://www.w3.org/2000/svg">
<mask id="mask0_3159_7313" style="mask-type:alpha" maskUnits="userSpaceOnUse" x="0" y="0" width="42" height="42">
<path d="M7 28C8.93375 28 10.5 26.4338 10.5 24.5C10.5 23.8595 10.3163 23.268 10.0153 22.75L14.0175 15.7482C14.5268 15.7465 15.008 15.6292 15.4437 15.4315L22.7833 20.6745C22.7728 20.783 22.75 20.888 22.75 21C22.75 22.9338 24.3162 24.5 26.25 24.5C28.1838 24.5 29.75 22.9338 29.75 21C29.75 20.4838 29.631 19.9972 29.4315 19.558L34.6745 12.2185C34.783 12.2272 34.888 12.25 35 12.25C36.9338 12.25 38.5 10.6838 38.5 8.75C38.5 6.81625 36.9338 5.25 35 5.25C33.0662 5.25 31.5 6.81625 31.5 8.75C31.5 9.26625 31.619 9.751 31.8185 10.192L26.5755 17.5315C26.467 17.5227 26.362 17.5 26.25 17.5C25.7338 17.5 25.249 17.619 24.808 17.8185L17.4667 12.5755C17.4772 12.467 17.5 12.362 17.5 12.25C17.5 10.3162 15.9338 8.75 14 8.75C12.0662 8.75 10.5 10.3162 10.5 12.25C10.5 12.8905 10.6855 13.482 10.9847 14L6.98425 21.0018C5.05925 21.0105 3.5 22.5733 3.5 24.5C3.5 26.4338 5.06625 28 7 28Z" fill="url(#paint0_linear_3159_7313)"/>
<path d="M35 6.125C36.4473 6.125 37.625 7.30275 37.625 8.75C37.625 10.1973 36.4473 11.375 35 11.375C34.9685 11.375 34.937 11.368 34.9073 11.3645L34.7568 11.347L34.2563 11.2997L33.964 11.7092L28.721 19.0488L28.427 19.46L28.6353 19.9203C28.7945 20.2703 28.875 20.6342 28.875 21C28.875 22.4473 27.6973 23.625 26.25 23.625C24.8027 23.625 23.625 22.4473 23.625 21C23.625 20.9685 23.632 20.937 23.6355 20.9072L23.653 20.7568L23.7003 20.2562L23.2908 19.964L15.9512 14.7193L15.54 14.4253L15.0815 14.6352C14.7368 14.791 14.378 14.8715 14.014 14.8732L13.5082 14.875L13.2562 15.3143L9.254 22.316L9.00375 22.7535L9.2575 23.1893C9.5025 23.6093 9.625 24.0485 9.625 24.5C9.625 25.9473 8.44725 27.125 7 27.125C5.55275 27.125 4.375 25.9473 4.375 24.5C4.375 23.0597 5.5475 21.8838 6.98775 21.8768L7.4935 21.875L7.74375 21.4357L11.7442 14.434L11.9945 13.9965L11.7408 13.559C11.4975 13.1408 11.375 12.7015 11.375 12.25C11.375 10.8027 12.5527 9.625 14 9.625C15.4473 9.625 16.625 10.8027 16.625 12.25C16.625 12.2815 16.618 12.313 16.6145 12.3427L16.597 12.4932L16.548 12.9955L16.9575 13.2877L24.297 18.5307L24.7083 18.8247L25.1685 18.6165C25.5202 18.4555 25.8842 18.375 26.25 18.375C26.2815 18.375 26.313 18.382 26.3445 18.3855L26.495 18.403L26.9955 18.4503L27.2878 18.0408L32.5308 10.7012L32.8247 10.29L32.6165 9.82975C32.4555 9.47975 32.375 9.11575 32.375 8.75C32.375 7.30275 33.5527 6.125 35 6.125ZM35 5.25C33.0662 5.25 31.5 6.81625 31.5 8.75C31.5 9.26625 31.619 9.751 31.8185 10.192L26.5755 17.5315C26.467 17.5227 26.362 17.5 26.25 17.5C25.7338 17.5 25.249 17.619 24.808 17.8185L17.4667 12.5755C17.4772 12.467 17.5 12.362 17.5 12.25C17.5 10.3162 15.9338 8.75 14 8.75C12.0662 8.75 10.5 10.3162 10.5 12.25C10.5 12.8905 10.6855 13.482 10.9847 14L6.98425 21.0018C5.05925 21.0105 3.5 22.5733 3.5 24.5C3.5 26.4338 5.06625 28 7 28C8.93375 28 10.5 26.4338 10.5 24.5C10.5 23.8595 10.3163 23.268 10.0153 22.75L14.0175 15.7482C14.5268 15.7465 15.008 15.6292 15.4437 15.4315L22.7833 20.6745C22.7728 20.783 22.75 20.888 22.75 21C22.75 22.9338 24.3162 24.5 26.25 24.5C28.1838 24.5 29.75 22.9338 29.75 21C29.75 20.4838 29.631 19.9972 29.4315 19.558L34.6745 12.2185C34.783 12.2272 34.888 12.25 35 12.25C36.9338 12.25 38.5 10.6838 38.5 8.75C38.5 6.81625 36.9338 5.25 35 5.25Z" fill="url(#paint1_linear_3159_7313)"/>
<path d="M35.875 31.5H6.125C4.676 31.5 3.5 32.676 3.5 34.125C3.5 35.574 4.676 36.75 6.125 36.75H35.875C37.324 36.75 38.5 35.574 38.5 34.125C38.5 32.676 37.324 31.5 35.875 31.5Z" fill="url(#paint2_linear_3159_7313)"/>
<path d="M35.875 32.375C36.8392 32.375 37.625 33.1608 37.625 34.125C37.625 35.0892 36.8392 35.875 35.875 35.875H6.125C5.16075 35.875 4.375 35.0892 4.375 34.125C4.375 33.1608 5.16075 32.375 6.125 32.375H35.875ZM35.875 31.5H6.125C4.676 31.5 3.5 32.676 3.5 34.125C3.5 35.574 4.676 36.75 6.125 36.75H35.875C37.324 36.75 38.5 35.574 38.5 34.125C38.5 32.676 37.324 31.5 35.875 31.5Z" fill="url(#paint3_linear_3159_7313)"/>
<path d="M35 12.25C36.933 12.25 38.5 10.683 38.5 8.75C38.5 6.817 36.933 5.25 35 5.25C33.067 5.25 31.5 6.817 31.5 8.75C31.5 10.683 33.067 12.25 35 12.25Z" fill="url(#paint4_linear_3159_7313)"/>
<path d="M26.25 24.5C28.183 24.5 29.75 22.933 29.75 21C29.75 19.067 28.183 17.5 26.25 17.5C24.317 17.5 22.75 19.067 22.75 21C22.75 22.933 24.317 24.5 26.25 24.5Z" fill="url(#paint5_linear_3159_7313)"/>
<path d="M14 15.75C15.933 15.75 17.5 14.183 17.5 12.25C17.5 10.317 15.933 8.75 14 8.75C12.067 8.75 10.5 10.317 10.5 12.25C10.5 14.183 12.067 15.75 14 15.75Z" fill="url(#paint6_linear_3159_7313)"/>
<path d="M7 28C8.933 28 10.5 26.433 10.5 24.5C10.5 22.567 8.933 21 7 21C5.067 21 3.5 22.567 3.5 24.5C3.5 26.433 5.067 28 7 28Z" fill="url(#paint7_linear_3159_7313)"/>
</mask>
<g mask="url(#mask0_3159_7313)">
<rect y="0.158539" width="42" height="42" fill="#B4CCEE"/>
</g>
<defs>
<linearGradient id="paint0_linear_3159_7313" x1="12.838" y1="8.463" x2="28.287" y2="23.912" gradientUnits="userSpaceOnUse">
<stop stop-color="white" stop-opacity="0.6"/>
<stop offset="1" stop-color="white" stop-opacity="0.3"/>
</linearGradient>
<linearGradient id="paint1_linear_3159_7313" x1="3.5" y1="16.625" x2="38.5" y2="16.625" gradientUnits="userSpaceOnUse">
<stop stop-color="white" stop-opacity="0.6"/>
<stop offset="0.493" stop-color="white" stop-opacity="0"/>
<stop offset="0.997" stop-color="white" stop-opacity="0.3"/>
</linearGradient>
<linearGradient id="paint2_linear_3159_7313" x1="11.7058" y1="24.8307" x2="30.2943" y2="43.4192" gradientUnits="userSpaceOnUse">
<stop stop-color="white" stop-opacity="0.6"/>
<stop offset="1" stop-color="white" stop-opacity="0.3"/>
</linearGradient>
<linearGradient id="paint3_linear_3159_7313" x1="3.5" y1="34.125" x2="38.5" y2="34.125" gradientUnits="userSpaceOnUse">
<stop stop-color="white" stop-opacity="0.6"/>
<stop offset="0.493" stop-color="white" stop-opacity="0"/>
<stop offset="0.997" stop-color="white" stop-opacity="0.3"/>
</linearGradient>
<linearGradient id="paint4_linear_3159_7313" x1="32.5255" y1="6.2755" x2="37.4745" y2="11.2245" gradientUnits="userSpaceOnUse">
<stop stop-color="white" stop-opacity="0.6"/>
<stop offset="1" stop-color="white" stop-opacity="0.3"/>
</linearGradient>
<linearGradient id="paint5_linear_3159_7313" x1="23.7755" y1="18.5255" x2="28.7245" y2="23.4745" gradientUnits="userSpaceOnUse">
<stop stop-color="white" stop-opacity="0.6"/>
<stop offset="1" stop-color="white" stop-opacity="0.3"/>
</linearGradient>
<linearGradient id="paint6_linear_3159_7313" x1="11.5255" y1="9.7755" x2="16.4745" y2="14.7245" gradientUnits="userSpaceOnUse">
<stop stop-color="white" stop-opacity="0.6"/>
<stop offset="1" stop-color="white" stop-opacity="0.3"/>
</linearGradient>
<linearGradient id="paint7_linear_3159_7313" x1="4.5255" y1="22.0255" x2="9.4745" y2="26.9745" gradientUnits="userSpaceOnUse">
<stop stop-color="white" stop-opacity="0.6"/>
<stop offset="1" stop-color="white" stop-opacity="0.3"/>
</linearGradient>
</defs>
</svg>
